<?xml version="1.0" encoding="UTF-8" standalone="no"?>
<svg
   class="ionicon"
   viewBox="0 0 512 512"
   version="1.1"
   id="svg1"
   sodipodi:docname="code-slash.svg"
   inkscape:version="1.4 (86a8ad7, 2024-10-11)"
   xmlns:inkscape="http://www.inkscape.org/namespaces/inkscape"
   xmlns:sodipodi="http://sodipodi.sourceforge.net/DTD/sodipodi-0.dtd"
   xmlns="http://www.w3.org/2000/svg"
   xmlns:svg="http://www.w3.org/2000/svg">
  <defs
     id="defs1" />
  <sodipodi:namedview
     id="namedview1"
     pagecolor="#ffffff"
     bordercolor="#000000"
     borderopacity="0.25"
     inkscape:showpageshadow="2"
     inkscape:pageopacity="0.0"
     inkscape:pagecheckerboard="0"
     inkscape:deskcolor="#d1d1d1"
     inkscape:zoom="1.6699219"
     inkscape:cx="216.47719"
     inkscape:cy="247.01754"
     inkscape:window-width="1920"
     inkscape:window-height="1057"
     inkscape:window-x="-8"
     inkscape:window-y="-8"
     inkscape:window-maximized="1"
     inkscape:current-layer="svg1" />
  <path
     d="M160 389a20.91 20.91 0 01-13.82-5.2l-128-112a21 21 0 010-31.6l128-112a21 21 0 0127.66 31.61L63.89 256l109.94 96.19A21 21 0 01160 389zM352 389a21 21 0 01-13.84-36.81L448.11 256l-109.94-96.19a21 21 0 0127.66-31.61l128 112a21 21 0 010 31.6l-128 112A20.89 20.89 0 01352 389zM208 437a21 21 0 01-20.12-27l96-320a21 21 0 1140.23 12l-96 320A21 21 0 01208 437z"
     id="path1"
     style="fill:#00ff00" />
</svg>
