<?xml version="1.0" encoding="UTF-8" standalone="no"?>
<svg
   class="ionicon"
   viewBox="0 0 512 512"
   version="1.1"
   id="svg3"
   sodipodi:docname="documents.svg"
   inkscape:version="1.4 (86a8ad7, 2024-10-11)"
   xmlns:inkscape="http://www.inkscape.org/namespaces/inkscape"
   xmlns:sodipodi="http://sodipodi.sourceforge.net/DTD/sodipodi-0.dtd"
   xmlns="http://www.w3.org/2000/svg"
   xmlns:svg="http://www.w3.org/2000/svg">
  <defs
     id="defs3" />
  <sodipodi:namedview
     id="namedview3"
     pagecolor="#ffffff"
     bordercolor="#000000"
     borderopacity="0.25"
     inkscape:showpageshadow="2"
     inkscape:pageopacity="0.0"
     inkscape:pagecheckerboard="0"
     inkscape:deskcolor="#d1d1d1"
     inkscape:zoom="1.6699219"
     inkscape:cx="256"
     inkscape:cy="256"
     inkscape:window-width="1920"
     inkscape:window-height="1057"
     inkscape:window-x="-8"
     inkscape:window-y="-8"
     inkscape:window-maximized="1"
     inkscape:current-layer="svg3" />
  <path
     d="M298.39 248a4 4 0 002.86-6.8l-78.4-79.72a4 4 0 00-6.85 2.81V236a12 12 0 0012 12z"
     id="path1"
     style="fill:#00ff00" />
  <path
     d="M197 267a43.67 43.67 0 01-13-31v-92h-72a64.19 64.19 0 00-64 64v224a64 64 0 0064 64h144a64 64 0 0064-64V280h-92a43.61 43.61 0 01-31-13zM372 120h70.39a4 4 0 002.86-6.8l-78.4-79.72a4 4 0 00-6.85 2.81V108a12 12 0 0012 12z"
     id="path2"
     style="fill:#00ff00" />
  <path
     d="M372 152a44.34 44.34 0 01-44-44V16H220a60.07 60.07 0 00-60 60v36h42.12A40.81 40.81 0 01231 124.14l109.16 111a41.11 41.11 0 0111.83 29V400h53.05c32.51 0 58.95-26.92 58.95-60V152z"
     id="path3"
     style="fill:#00ff00" />
</svg>
