<?xml version="1.0" encoding="UTF-8" standalone="no"?>
<svg
   class="ionicon"
   viewBox="0 0 512 512"
   version="1.1"
   id="svg2"
   sodipodi:docname="document-lock.svg"
   inkscape:version="1.4 (86a8ad7, 2024-10-11)"
   xmlns:inkscape="http://www.inkscape.org/namespaces/inkscape"
   xmlns:sodipodi="http://sodipodi.sourceforge.net/DTD/sodipodi-0.dtd"
   xmlns="http://www.w3.org/2000/svg"
   xmlns:svg="http://www.w3.org/2000/svg">
  <defs
     id="defs2" />
  <sodipodi:namedview
     id="namedview2"
     pagecolor="#ffffff"
     bordercolor="#000000"
     borderopacity="0.25"
     inkscape:showpageshadow="2"
     inkscape:pageopacity="0.0"
     inkscape:pagecheckerboard="0"
     inkscape:deskcolor="#d1d1d1"
     inkscape:zoom="1.6699219"
     inkscape:cx="256"
     inkscape:cy="256"
     inkscape:window-width="1920"
     inkscape:window-height="1057"
     inkscape:window-x="-8"
     inkscape:window-y="-8"
     inkscape:window-maximized="1"
     inkscape:current-layer="svg2" />
  <path
     d="M288 192h129.81a2 2 0 001.41-3.41L275.41 44.78a2 2 0 00-3.41 1.41V176a16 16 0 0016 16zM256 272c-8.82 0-16 6.28-16 14v18h32v-18c0-7.72-7.18-14-16-14z"
     id="path1"
     style="fill:#00ff00" />
  <path
     d="M428 224H288a48 48 0 01-48-48V36a4 4 0 00-4-4h-92a64 64 0 00-64 64v320a64 64 0 0064 64h224a64 64 0 0064-64V228a4 4 0 00-4-4zm-92 160a32 32 0 01-32 32h-96a32 32 0 01-32-32v-48a32 32 0 0132-32v-18c0-25.36 21.53-46 48-46s48 20.64 48 46v18a32 32 0 0132 32z"
     id="path2"
     style="fill:#00ff00" />
</svg>
